<mxfile host="app.diagrams.net" modified="2023-05-10T19:48:47.395Z" agent="Mozilla/5.0 (Windows NT 10.0; Win64; x64) AppleWebKit/537.36 (KHTML, like Gecko) Chrome/112.0.0.0 Safari/537.36" etag="4SCZoXkTiHjMqeEOXGgV" version="21.2.9" type="device">
  <diagram name="Side-1" id="VQBunRjbHpMvZIsHqpjL">
    <mxGraphModel dx="2029" dy="644" grid="0" gridSize="10" guides="1" tooltips="1" connect="1" arrows="1" fold="1" page="1" pageScale="1" pageWidth="827" pageHeight="1169" math="0" shadow="0">
      <root>
        <mxCell id="0" />
        <mxCell id="1" parent="0" />
        <mxCell id="nvYKhkTwX3gsD7iD9ED5-1" value="&lt;font style=&quot;font-size: 23px;&quot;&gt;SLS Backend Component Diagram&lt;/font&gt;" style="text;html=1;align=center;verticalAlign=middle;resizable=0;points=[];autosize=1;strokeColor=none;fillColor=none;labelBackgroundColor=none;" vertex="1" parent="1">
          <mxGeometry x="-802" y="730" width="380" height="40" as="geometry" />
        </mxCell>
        <mxCell id="nvYKhkTwX3gsD7iD9ED5-2" value="&lt;font style=&quot;font-size: 12px;&quot;&gt;(from the stance that an ecmascript module can be concidered a component)&lt;/font&gt;" style="text;html=1;align=center;verticalAlign=middle;resizable=0;points=[];autosize=1;strokeColor=none;fillColor=none;labelBackgroundColor=none;" vertex="1" parent="1">
          <mxGeometry x="-827" y="770" width="430" height="30" as="geometry" />
        </mxCell>
        <mxCell id="nvYKhkTwX3gsD7iD9ED5-3" style="edgeStyle=orthogonalEdgeStyle;rounded=0;orthogonalLoop=1;jettySize=auto;html=1;endArrow=halfCircle;endFill=0;" edge="1" parent="1" source="nvYKhkTwX3gsD7iD9ED5-9">
          <mxGeometry relative="1" as="geometry">
            <mxPoint x="-530" y="920" as="targetPoint" />
          </mxGeometry>
        </mxCell>
        <mxCell id="nvYKhkTwX3gsD7iD9ED5-4" value="initializeDB" style="edgeLabel;html=1;align=center;verticalAlign=middle;resizable=0;points=[];" vertex="1" connectable="0" parent="nvYKhkTwX3gsD7iD9ED5-3">
          <mxGeometry x="0.7165" y="-1" relative="1" as="geometry">
            <mxPoint y="-14" as="offset" />
          </mxGeometry>
        </mxCell>
        <mxCell id="nvYKhkTwX3gsD7iD9ED5-109" value="initializeDB" style="edgeLabel;html=1;align=center;verticalAlign=middle;resizable=0;points=[];labelBackgroundColor=none;" vertex="1" connectable="0" parent="nvYKhkTwX3gsD7iD9ED5-3">
          <mxGeometry x="0.7165" y="-1" relative="1" as="geometry">
            <mxPoint y="-14" as="offset" />
          </mxGeometry>
        </mxCell>
        <mxCell id="nvYKhkTwX3gsD7iD9ED5-5" style="edgeStyle=orthogonalEdgeStyle;rounded=0;orthogonalLoop=1;jettySize=auto;html=1;endArrow=halfCircle;endFill=0;" edge="1" parent="1" source="nvYKhkTwX3gsD7iD9ED5-9">
          <mxGeometry relative="1" as="geometry">
            <mxPoint x="-620" y="920" as="targetPoint" />
          </mxGeometry>
        </mxCell>
        <mxCell id="nvYKhkTwX3gsD7iD9ED5-6" value="initializeAPI" style="edgeLabel;html=1;align=center;verticalAlign=middle;resizable=0;points=[];" vertex="1" connectable="0" parent="nvYKhkTwX3gsD7iD9ED5-5">
          <mxGeometry x="0.2752" y="-2" relative="1" as="geometry">
            <mxPoint x="2" y="-12" as="offset" />
          </mxGeometry>
        </mxCell>
        <mxCell id="nvYKhkTwX3gsD7iD9ED5-110" value="initializeAPI" style="edgeLabel;html=1;align=center;verticalAlign=middle;resizable=0;points=[];labelBackgroundColor=none;" vertex="1" connectable="0" parent="nvYKhkTwX3gsD7iD9ED5-5">
          <mxGeometry x="0.2752" y="-2" relative="1" as="geometry">
            <mxPoint x="2" y="-12" as="offset" />
          </mxGeometry>
        </mxCell>
        <mxCell id="nvYKhkTwX3gsD7iD9ED5-7" style="edgeStyle=orthogonalEdgeStyle;rounded=0;orthogonalLoop=1;jettySize=auto;html=1;endArrow=halfCircle;endFill=0;" edge="1" parent="1" source="nvYKhkTwX3gsD7iD9ED5-9">
          <mxGeometry relative="1" as="geometry">
            <mxPoint x="-710" y="920" as="targetPoint" />
            <Array as="points">
              <mxPoint x="-710" y="840" />
            </Array>
          </mxGeometry>
        </mxCell>
        <mxCell id="nvYKhkTwX3gsD7iD9ED5-8" value="startCacheLoader" style="edgeLabel;html=1;align=center;verticalAlign=middle;resizable=0;points=[];" vertex="1" connectable="0" parent="nvYKhkTwX3gsD7iD9ED5-7">
          <mxGeometry x="0.5992" relative="1" as="geometry">
            <mxPoint y="-8" as="offset" />
          </mxGeometry>
        </mxCell>
        <mxCell id="nvYKhkTwX3gsD7iD9ED5-111" value="startCacheLoader" style="edgeLabel;html=1;align=center;verticalAlign=middle;resizable=0;points=[];labelBackgroundColor=none;" vertex="1" connectable="0" parent="nvYKhkTwX3gsD7iD9ED5-7">
          <mxGeometry x="0.5992" relative="1" as="geometry">
            <mxPoint y="-8" as="offset" />
          </mxGeometry>
        </mxCell>
        <mxCell id="nvYKhkTwX3gsD7iD9ED5-9" value="index" style="rounded=0;whiteSpace=wrap;html=1;fillColor=none;" vertex="1" parent="1">
          <mxGeometry x="-680" y="810" width="120" height="60" as="geometry" />
        </mxCell>
        <mxCell id="nvYKhkTwX3gsD7iD9ED5-10" style="edgeStyle=orthogonalEdgeStyle;rounded=0;orthogonalLoop=1;jettySize=auto;html=1;endArrow=circle;endFill=0;" edge="1" parent="1" source="nvYKhkTwX3gsD7iD9ED5-26">
          <mxGeometry relative="1" as="geometry">
            <mxPoint x="-529.9999999999998" y="920" as="targetPoint" />
          </mxGeometry>
        </mxCell>
        <mxCell id="nvYKhkTwX3gsD7iD9ED5-11" style="edgeStyle=orthogonalEdgeStyle;rounded=0;orthogonalLoop=1;jettySize=auto;html=1;endArrow=halfCircle;endFill=0;" edge="1" parent="1">
          <mxGeometry relative="1" as="geometry">
            <mxPoint x="-380" y="990" as="targetPoint" />
            <mxPoint x="-460" y="990" as="sourcePoint" />
            <Array as="points">
              <mxPoint x="-410" y="990" />
              <mxPoint x="-410" y="990" />
            </Array>
          </mxGeometry>
        </mxCell>
        <mxCell id="nvYKhkTwX3gsD7iD9ED5-12" value="create" style="edgeLabel;html=1;align=center;verticalAlign=middle;resizable=0;points=[];" vertex="1" connectable="0" parent="nvYKhkTwX3gsD7iD9ED5-11">
          <mxGeometry x="0.257" y="2" relative="1" as="geometry">
            <mxPoint x="30" y="-18" as="offset" />
          </mxGeometry>
        </mxCell>
        <mxCell id="nvYKhkTwX3gsD7iD9ED5-112" value="create" style="edgeLabel;html=1;align=center;verticalAlign=middle;resizable=0;points=[];labelBackgroundColor=none;" vertex="1" connectable="0" parent="nvYKhkTwX3gsD7iD9ED5-11">
          <mxGeometry x="0.257" y="2" relative="1" as="geometry">
            <mxPoint x="30" y="-18" as="offset" />
          </mxGeometry>
        </mxCell>
        <mxCell id="nvYKhkTwX3gsD7iD9ED5-13" style="edgeStyle=orthogonalEdgeStyle;rounded=0;orthogonalLoop=1;jettySize=auto;html=1;endArrow=halfCircle;endFill=0;" edge="1" parent="1">
          <mxGeometry relative="1" as="geometry">
            <mxPoint x="-380" y="1030" as="targetPoint" />
            <mxPoint x="-460" y="1030" as="sourcePoint" />
            <Array as="points">
              <mxPoint x="-430" y="1030" />
              <mxPoint x="-430" y="1030" />
            </Array>
          </mxGeometry>
        </mxCell>
        <mxCell id="nvYKhkTwX3gsD7iD9ED5-14" value="useDB" style="edgeLabel;html=1;align=center;verticalAlign=middle;resizable=0;points=[];" vertex="1" connectable="0" parent="nvYKhkTwX3gsD7iD9ED5-13">
          <mxGeometry x="0.126" y="2" relative="1" as="geometry">
            <mxPoint x="35" y="-18" as="offset" />
          </mxGeometry>
        </mxCell>
        <mxCell id="nvYKhkTwX3gsD7iD9ED5-113" value="useDB" style="edgeLabel;html=1;align=center;verticalAlign=middle;resizable=0;points=[];labelBackgroundColor=none;" vertex="1" connectable="0" parent="nvYKhkTwX3gsD7iD9ED5-13">
          <mxGeometry x="0.126" y="2" relative="1" as="geometry">
            <mxPoint x="35" y="-18" as="offset" />
          </mxGeometry>
        </mxCell>
        <mxCell id="nvYKhkTwX3gsD7iD9ED5-15" style="edgeStyle=orthogonalEdgeStyle;rounded=0;orthogonalLoop=1;jettySize=auto;html=1;endArrow=halfCircle;endFill=0;" edge="1" parent="1" source="nvYKhkTwX3gsD7iD9ED5-26">
          <mxGeometry relative="1" as="geometry">
            <mxPoint x="-380" y="1060" as="targetPoint" />
            <Array as="points">
              <mxPoint x="-480" y="1060" />
              <mxPoint x="-380" y="1060" />
            </Array>
          </mxGeometry>
        </mxCell>
        <mxCell id="nvYKhkTwX3gsD7iD9ED5-16" value="insertOrUpdateChampion" style="edgeLabel;html=1;align=center;verticalAlign=middle;resizable=0;points=[];fontColor=default;labelBackgroundColor=none;" vertex="1" connectable="0" parent="nvYKhkTwX3gsD7iD9ED5-15">
          <mxGeometry x="0.6673" y="-1" relative="1" as="geometry">
            <mxPoint y="-12" as="offset" />
          </mxGeometry>
        </mxCell>
        <mxCell id="nvYKhkTwX3gsD7iD9ED5-17" style="edgeStyle=orthogonalEdgeStyle;rounded=0;orthogonalLoop=1;jettySize=auto;html=1;endArrow=halfCircle;endFill=0;" edge="1" parent="1" source="nvYKhkTwX3gsD7iD9ED5-26">
          <mxGeometry relative="1" as="geometry">
            <mxPoint x="-380" y="1150" as="targetPoint" />
            <Array as="points">
              <mxPoint x="-480" y="1150" />
            </Array>
          </mxGeometry>
        </mxCell>
        <mxCell id="nvYKhkTwX3gsD7iD9ED5-18" value="getRotationForToday" style="edgeLabel;html=1;align=center;verticalAlign=middle;resizable=0;points=[];labelBackgroundColor=none;" vertex="1" connectable="0" parent="nvYKhkTwX3gsD7iD9ED5-17">
          <mxGeometry x="0.4571" y="1" relative="1" as="geometry">
            <mxPoint x="37" y="-14" as="offset" />
          </mxGeometry>
        </mxCell>
        <mxCell id="nvYKhkTwX3gsD7iD9ED5-19" style="edgeStyle=orthogonalEdgeStyle;rounded=0;orthogonalLoop=1;jettySize=auto;html=1;endArrow=halfCircle;endFill=0;" edge="1" parent="1" source="nvYKhkTwX3gsD7iD9ED5-26">
          <mxGeometry relative="1" as="geometry">
            <mxPoint x="-380" y="1220" as="targetPoint" />
            <Array as="points">
              <mxPoint x="-480" y="1220" />
            </Array>
          </mxGeometry>
        </mxCell>
        <mxCell id="nvYKhkTwX3gsD7iD9ED5-20" value="insertOrUpdateAbility" style="edgeLabel;html=1;align=center;verticalAlign=middle;resizable=0;points=[];labelBackgroundColor=none;" vertex="1" connectable="0" parent="nvYKhkTwX3gsD7iD9ED5-19">
          <mxGeometry x="0.6982" y="-1" relative="1" as="geometry">
            <mxPoint x="22" y="-21" as="offset" />
          </mxGeometry>
        </mxCell>
        <mxCell id="nvYKhkTwX3gsD7iD9ED5-21" style="edgeStyle=orthogonalEdgeStyle;rounded=0;orthogonalLoop=1;jettySize=auto;html=1;endArrow=halfCircle;endFill=0;" edge="1" parent="1" source="nvYKhkTwX3gsD7iD9ED5-26">
          <mxGeometry relative="1" as="geometry">
            <mxPoint x="-380" y="1290" as="targetPoint" />
            <Array as="points">
              <mxPoint x="-480" y="1290" />
            </Array>
          </mxGeometry>
        </mxCell>
        <mxCell id="nvYKhkTwX3gsD7iD9ED5-22" value="insertFetchTimeNow" style="edgeLabel;html=1;align=center;verticalAlign=middle;resizable=0;points=[];labelBackgroundColor=none;" vertex="1" connectable="0" parent="nvYKhkTwX3gsD7iD9ED5-21">
          <mxGeometry x="0.6279" y="2" relative="1" as="geometry">
            <mxPoint x="45" y="-18" as="offset" />
          </mxGeometry>
        </mxCell>
        <mxCell id="nvYKhkTwX3gsD7iD9ED5-23" style="edgeStyle=orthogonalEdgeStyle;rounded=0;orthogonalLoop=1;jettySize=auto;html=1;endArrow=circle;endFill=0;" edge="1" parent="1" source="nvYKhkTwX3gsD7iD9ED5-26">
          <mxGeometry relative="1" as="geometry">
            <mxPoint x="-550" y="1080" as="targetPoint" />
            <Array as="points">
              <mxPoint x="-520" y="1080" />
            </Array>
          </mxGeometry>
        </mxCell>
        <mxCell id="nvYKhkTwX3gsD7iD9ED5-24" style="edgeStyle=orthogonalEdgeStyle;rounded=0;orthogonalLoop=1;jettySize=auto;html=1;endArrow=halfCircle;endFill=0;" edge="1" parent="1" source="nvYKhkTwX3gsD7iD9ED5-26">
          <mxGeometry relative="1" as="geometry">
            <mxPoint x="-380" y="1100" as="targetPoint" />
            <Array as="points">
              <mxPoint x="-480" y="1100" />
            </Array>
          </mxGeometry>
        </mxCell>
        <mxCell id="nvYKhkTwX3gsD7iD9ED5-25" value="getChampionByKey" style="edgeLabel;html=1;align=center;verticalAlign=middle;resizable=0;points=[];labelBackgroundColor=none;" vertex="1" connectable="0" parent="nvYKhkTwX3gsD7iD9ED5-24">
          <mxGeometry x="0.0302" relative="1" as="geometry">
            <mxPoint x="58" y="-15" as="offset" />
          </mxGeometry>
        </mxCell>
        <mxCell id="nvYKhkTwX3gsD7iD9ED5-26" value="db" style="rounded=0;whiteSpace=wrap;html=1;fillColor=none;" vertex="1" parent="1">
          <mxGeometry x="-540" y="980" width="120" height="60" as="geometry" />
        </mxCell>
        <mxCell id="nvYKhkTwX3gsD7iD9ED5-27" style="edgeStyle=orthogonalEdgeStyle;rounded=0;orthogonalLoop=1;jettySize=auto;html=1;endArrow=circle;endFill=0;" edge="1" parent="1" source="nvYKhkTwX3gsD7iD9ED5-28">
          <mxGeometry relative="1" as="geometry">
            <mxPoint x="-710" y="920" as="targetPoint" />
            <Array as="points">
              <mxPoint x="-760" y="951" />
              <mxPoint x="-710" y="951" />
            </Array>
          </mxGeometry>
        </mxCell>
        <mxCell id="nvYKhkTwX3gsD7iD9ED5-28" value="cacheLoader" style="rounded=0;whiteSpace=wrap;html=1;fillColor=none;" vertex="1" parent="1">
          <mxGeometry x="-820" y="980" width="120" height="60" as="geometry" />
        </mxCell>
        <mxCell id="nvYKhkTwX3gsD7iD9ED5-29" style="edgeStyle=orthogonalEdgeStyle;rounded=0;orthogonalLoop=1;jettySize=auto;html=1;endArrow=circle;endFill=0;" edge="1" parent="1" source="nvYKhkTwX3gsD7iD9ED5-33">
          <mxGeometry relative="1" as="geometry">
            <mxPoint x="-619.9999999999998" y="920" as="targetPoint" />
          </mxGeometry>
        </mxCell>
        <mxCell id="nvYKhkTwX3gsD7iD9ED5-30" value="update...Players" style="edgeStyle=orthogonalEdgeStyle;rounded=0;orthogonalLoop=1;jettySize=auto;html=1;endArrow=halfCircle;endFill=0;labelBackgroundColor=none;" edge="1" parent="1">
          <mxGeometry relative="1" as="geometry">
            <mxPoint x="-760" y="1080" as="targetPoint" />
            <mxPoint x="-759.9655172413793" y="1040" as="sourcePoint" />
          </mxGeometry>
        </mxCell>
        <mxCell id="nvYKhkTwX3gsD7iD9ED5-31" style="edgeStyle=orthogonalEdgeStyle;rounded=0;orthogonalLoop=1;jettySize=auto;html=1;endArrow=halfCircle;endFill=0;" edge="1" parent="1" source="nvYKhkTwX3gsD7iD9ED5-33">
          <mxGeometry relative="1" as="geometry">
            <mxPoint x="-550" y="1080" as="targetPoint" />
            <Array as="points">
              <mxPoint x="-620" y="1080" />
            </Array>
          </mxGeometry>
        </mxCell>
        <mxCell id="nvYKhkTwX3gsD7iD9ED5-32" value="db" style="edgeLabel;html=1;align=center;verticalAlign=middle;resizable=0;points=[];labelBackgroundColor=none;" vertex="1" connectable="0" parent="nvYKhkTwX3gsD7iD9ED5-31">
          <mxGeometry x="0.2011" y="1" relative="1" as="geometry">
            <mxPoint x="44" y="-19" as="offset" />
          </mxGeometry>
        </mxCell>
        <mxCell id="nvYKhkTwX3gsD7iD9ED5-33" value="api" style="rounded=0;whiteSpace=wrap;html=1;fillColor=none;" vertex="1" parent="1">
          <mxGeometry x="-680" y="980" width="120" height="60" as="geometry" />
        </mxCell>
        <mxCell id="nvYKhkTwX3gsD7iD9ED5-34" style="edgeStyle=orthogonalEdgeStyle;rounded=0;orthogonalLoop=1;jettySize=auto;html=1;endArrow=circle;endFill=0;" edge="1" parent="1" source="nvYKhkTwX3gsD7iD9ED5-35">
          <mxGeometry relative="1" as="geometry">
            <mxPoint x="-760" y="1080" as="targetPoint" />
          </mxGeometry>
        </mxCell>
        <mxCell id="nvYKhkTwX3gsD7iD9ED5-35" value="playerLoader" style="rounded=0;whiteSpace=wrap;html=1;fillColor=none;" vertex="1" parent="1">
          <mxGeometry x="-820" y="1110" width="120" height="60" as="geometry" />
        </mxCell>
        <mxCell id="nvYKhkTwX3gsD7iD9ED5-36" style="edgeStyle=orthogonalEdgeStyle;rounded=0;orthogonalLoop=1;jettySize=auto;html=1;endArrow=circle;endFill=0;" edge="1" parent="1" source="nvYKhkTwX3gsD7iD9ED5-38">
          <mxGeometry relative="1" as="geometry">
            <mxPoint x="-380" y="990" as="targetPoint" />
            <Array as="points">
              <mxPoint x="-350" y="990" />
              <mxPoint x="-350" y="990" />
            </Array>
          </mxGeometry>
        </mxCell>
        <mxCell id="nvYKhkTwX3gsD7iD9ED5-37" style="edgeStyle=orthogonalEdgeStyle;rounded=0;orthogonalLoop=1;jettySize=auto;html=1;endArrow=circle;endFill=0;" edge="1" parent="1" source="nvYKhkTwX3gsD7iD9ED5-38">
          <mxGeometry relative="1" as="geometry">
            <mxPoint x="-380" y="1030" as="targetPoint" />
            <Array as="points">
              <mxPoint x="-350" y="1030" />
              <mxPoint x="-350" y="1030" />
            </Array>
          </mxGeometry>
        </mxCell>
        <mxCell id="nvYKhkTwX3gsD7iD9ED5-38" value="dbUtil" style="rounded=0;whiteSpace=wrap;html=1;fillColor=none;" vertex="1" parent="1">
          <mxGeometry x="-330" y="980" width="120" height="60" as="geometry" />
        </mxCell>
        <mxCell id="nvYKhkTwX3gsD7iD9ED5-39" style="edgeStyle=orthogonalEdgeStyle;rounded=0;orthogonalLoop=1;jettySize=auto;html=1;endArrow=circle;endFill=0;" edge="1" parent="1">
          <mxGeometry relative="1" as="geometry">
            <mxPoint x="-380" y="1059" as="targetPoint" />
            <mxPoint x="-330" y="1059" as="sourcePoint" />
          </mxGeometry>
        </mxCell>
        <mxCell id="nvYKhkTwX3gsD7iD9ED5-40" style="edgeStyle=orthogonalEdgeStyle;rounded=0;orthogonalLoop=1;jettySize=auto;html=1;endArrow=circle;endFill=0;" edge="1" parent="1" source="nvYKhkTwX3gsD7iD9ED5-41">
          <mxGeometry relative="1" as="geometry">
            <mxPoint x="-380" y="1100" as="targetPoint" />
            <Array as="points">
              <mxPoint x="-370" y="1100" />
              <mxPoint x="-370" y="1100" />
            </Array>
          </mxGeometry>
        </mxCell>
        <mxCell id="nvYKhkTwX3gsD7iD9ED5-41" value="ChampionRepository" style="rounded=0;whiteSpace=wrap;html=1;fillColor=none;" vertex="1" parent="1">
          <mxGeometry x="-330" y="1049" width="120" height="60" as="geometry" />
        </mxCell>
        <mxCell id="nvYKhkTwX3gsD7iD9ED5-42" style="edgeStyle=orthogonalEdgeStyle;rounded=0;orthogonalLoop=1;jettySize=auto;html=1;endArrow=circle;endFill=0;" edge="1" parent="1" source="nvYKhkTwX3gsD7iD9ED5-43">
          <mxGeometry relative="1" as="geometry">
            <mxPoint x="-380" y="1150" as="targetPoint" />
          </mxGeometry>
        </mxCell>
        <mxCell id="nvYKhkTwX3gsD7iD9ED5-43" value="RotationsRepository" style="rounded=0;whiteSpace=wrap;html=1;fillColor=none;" vertex="1" parent="1">
          <mxGeometry x="-330" y="1120" width="120" height="60" as="geometry" />
        </mxCell>
        <mxCell id="nvYKhkTwX3gsD7iD9ED5-44" style="edgeStyle=orthogonalEdgeStyle;rounded=0;orthogonalLoop=1;jettySize=auto;html=1;endArrow=circle;endFill=0;" edge="1" parent="1" source="nvYKhkTwX3gsD7iD9ED5-45">
          <mxGeometry relative="1" as="geometry">
            <mxPoint x="-380" y="1220" as="targetPoint" />
          </mxGeometry>
        </mxCell>
        <mxCell id="nvYKhkTwX3gsD7iD9ED5-45" value="ChampionAbilities-&lt;br&gt;Repository" style="rounded=0;whiteSpace=wrap;html=1;fillColor=none;" vertex="1" parent="1">
          <mxGeometry x="-330" y="1190" width="120" height="60" as="geometry" />
        </mxCell>
        <mxCell id="nvYKhkTwX3gsD7iD9ED5-46" style="edgeStyle=orthogonalEdgeStyle;rounded=0;orthogonalLoop=1;jettySize=auto;html=1;endArrow=circle;endFill=0;" edge="1" parent="1" source="nvYKhkTwX3gsD7iD9ED5-47">
          <mxGeometry relative="1" as="geometry">
            <mxPoint x="-380" y="1290" as="targetPoint" />
          </mxGeometry>
        </mxCell>
        <mxCell id="nvYKhkTwX3gsD7iD9ED5-47" value="BackendStats-&lt;br&gt;Repository" style="rounded=0;whiteSpace=wrap;html=1;fillColor=none;" vertex="1" parent="1">
          <mxGeometry x="-330" y="1260" width="120" height="60" as="geometry" />
        </mxCell>
        <mxCell id="nvYKhkTwX3gsD7iD9ED5-48" style="rounded=0;orthogonalLoop=1;jettySize=auto;html=1;entryX=0.75;entryY=0;entryDx=0;entryDy=0;dashed=1;" edge="1" parent="1" source="nvYKhkTwX3gsD7iD9ED5-49" target="nvYKhkTwX3gsD7iD9ED5-26">
          <mxGeometry relative="1" as="geometry" />
        </mxCell>
        <mxCell id="nvYKhkTwX3gsD7iD9ED5-49" value="internal&lt;br&gt;service" style="shape=note;whiteSpace=wrap;html=1;backgroundOutline=1;darkOpacity=0.05;fillColor=none;" vertex="1" parent="1">
          <mxGeometry x="-414" y="870" width="104" height="50" as="geometry" />
        </mxCell>
        <mxCell id="nvYKhkTwX3gsD7iD9ED5-50" style="rounded=0;orthogonalLoop=1;jettySize=auto;html=1;entryX=0.25;entryY=0;entryDx=0;entryDy=0;dashed=1;" edge="1" parent="1" source="nvYKhkTwX3gsD7iD9ED5-51" target="nvYKhkTwX3gsD7iD9ED5-28">
          <mxGeometry relative="1" as="geometry" />
        </mxCell>
        <mxCell id="nvYKhkTwX3gsD7iD9ED5-51" value="internal&lt;br&gt;service" style="shape=note;whiteSpace=wrap;html=1;backgroundOutline=1;darkOpacity=0.05;fillColor=none;" vertex="1" parent="1">
          <mxGeometry x="-827" y="830" width="104" height="50" as="geometry" />
        </mxCell>
        <mxCell id="nvYKhkTwX3gsD7iD9ED5-52" style="rounded=0;orthogonalLoop=1;jettySize=auto;html=1;entryX=0.329;entryY=1.046;entryDx=0;entryDy=0;entryPerimeter=0;dashed=1;" edge="1" parent="1" source="nvYKhkTwX3gsD7iD9ED5-53" target="nvYKhkTwX3gsD7iD9ED5-33">
          <mxGeometry relative="1" as="geometry" />
        </mxCell>
        <mxCell id="nvYKhkTwX3gsD7iD9ED5-53" value="controllers" style="shape=note;whiteSpace=wrap;html=1;backgroundOutline=1;darkOpacity=0.05;fillColor=none;" vertex="1" parent="1">
          <mxGeometry x="-692" y="1130" width="122" height="50" as="geometry" />
        </mxCell>
        <mxCell id="nvYKhkTwX3gsD7iD9ED5-54" value="" style="group" vertex="1" connectable="0" parent="1">
          <mxGeometry x="-610" y="810" width="50" height="30" as="geometry" />
        </mxCell>
        <mxCell id="nvYKhkTwX3gsD7iD9ED5-55" value="" style="rounded=0;whiteSpace=wrap;html=1;fillColor=none;" vertex="1" parent="nvYKhkTwX3gsD7iD9ED5-54">
          <mxGeometry x="15" width="35" height="30" as="geometry" />
        </mxCell>
        <mxCell id="nvYKhkTwX3gsD7iD9ED5-56" value="" style="rounded=0;whiteSpace=wrap;html=1;" vertex="1" parent="nvYKhkTwX3gsD7iD9ED5-54">
          <mxGeometry y="5" width="25" height="5" as="geometry" />
        </mxCell>
        <mxCell id="nvYKhkTwX3gsD7iD9ED5-57" value="" style="rounded=0;whiteSpace=wrap;html=1;" vertex="1" parent="nvYKhkTwX3gsD7iD9ED5-54">
          <mxGeometry y="20" width="25" height="5" as="geometry" />
        </mxCell>
        <mxCell id="nvYKhkTwX3gsD7iD9ED5-58" value="" style="group" vertex="1" connectable="0" parent="1">
          <mxGeometry x="-470" y="980" width="50" height="30" as="geometry" />
        </mxCell>
        <mxCell id="nvYKhkTwX3gsD7iD9ED5-59" value="" style="rounded=0;whiteSpace=wrap;html=1;fillColor=none;" vertex="1" parent="nvYKhkTwX3gsD7iD9ED5-58">
          <mxGeometry x="15" width="35" height="30" as="geometry" />
        </mxCell>
        <mxCell id="nvYKhkTwX3gsD7iD9ED5-60" value="" style="rounded=0;whiteSpace=wrap;html=1;" vertex="1" parent="nvYKhkTwX3gsD7iD9ED5-58">
          <mxGeometry y="5" width="25" height="5" as="geometry" />
        </mxCell>
        <mxCell id="nvYKhkTwX3gsD7iD9ED5-61" value="" style="rounded=0;whiteSpace=wrap;html=1;" vertex="1" parent="nvYKhkTwX3gsD7iD9ED5-58">
          <mxGeometry y="20" width="25" height="5" as="geometry" />
        </mxCell>
        <mxCell id="nvYKhkTwX3gsD7iD9ED5-62" value="" style="group" vertex="1" connectable="0" parent="1">
          <mxGeometry x="-610" y="980" width="50" height="30" as="geometry" />
        </mxCell>
        <mxCell id="nvYKhkTwX3gsD7iD9ED5-63" value="" style="rounded=0;whiteSpace=wrap;html=1;fillColor=none;" vertex="1" parent="nvYKhkTwX3gsD7iD9ED5-62">
          <mxGeometry x="15" width="35" height="30" as="geometry" />
        </mxCell>
        <mxCell id="nvYKhkTwX3gsD7iD9ED5-64" value="" style="rounded=0;whiteSpace=wrap;html=1;" vertex="1" parent="nvYKhkTwX3gsD7iD9ED5-62">
          <mxGeometry y="5" width="25" height="5" as="geometry" />
        </mxCell>
        <mxCell id="nvYKhkTwX3gsD7iD9ED5-65" value="" style="rounded=0;whiteSpace=wrap;html=1;" vertex="1" parent="nvYKhkTwX3gsD7iD9ED5-62">
          <mxGeometry y="20" width="25" height="5" as="geometry" />
        </mxCell>
        <mxCell id="nvYKhkTwX3gsD7iD9ED5-66" value="" style="group" vertex="1" connectable="0" parent="1">
          <mxGeometry x="-750" y="980" width="50" height="30" as="geometry" />
        </mxCell>
        <mxCell id="nvYKhkTwX3gsD7iD9ED5-67" value="" style="rounded=0;whiteSpace=wrap;html=1;fillColor=none;" vertex="1" parent="nvYKhkTwX3gsD7iD9ED5-66">
          <mxGeometry x="15" width="35" height="30" as="geometry" />
        </mxCell>
        <mxCell id="nvYKhkTwX3gsD7iD9ED5-68" value="" style="rounded=0;whiteSpace=wrap;html=1;" vertex="1" parent="nvYKhkTwX3gsD7iD9ED5-66">
          <mxGeometry y="5" width="25" height="5" as="geometry" />
        </mxCell>
        <mxCell id="nvYKhkTwX3gsD7iD9ED5-69" value="" style="rounded=0;whiteSpace=wrap;html=1;" vertex="1" parent="nvYKhkTwX3gsD7iD9ED5-66">
          <mxGeometry y="20" width="25" height="5" as="geometry" />
        </mxCell>
        <mxCell id="nvYKhkTwX3gsD7iD9ED5-70" value="" style="group" vertex="1" connectable="0" parent="1">
          <mxGeometry x="-750" y="1110" width="50" height="30" as="geometry" />
        </mxCell>
        <mxCell id="nvYKhkTwX3gsD7iD9ED5-71" value="" style="rounded=0;whiteSpace=wrap;html=1;fillColor=none;" vertex="1" parent="nvYKhkTwX3gsD7iD9ED5-70">
          <mxGeometry x="15" width="35" height="30" as="geometry" />
        </mxCell>
        <mxCell id="nvYKhkTwX3gsD7iD9ED5-72" value="" style="rounded=0;whiteSpace=wrap;html=1;" vertex="1" parent="nvYKhkTwX3gsD7iD9ED5-70">
          <mxGeometry y="5" width="25" height="5" as="geometry" />
        </mxCell>
        <mxCell id="nvYKhkTwX3gsD7iD9ED5-73" value="" style="rounded=0;whiteSpace=wrap;html=1;" vertex="1" parent="nvYKhkTwX3gsD7iD9ED5-70">
          <mxGeometry y="20" width="25" height="5" as="geometry" />
        </mxCell>
        <mxCell id="nvYKhkTwX3gsD7iD9ED5-74" value="" style="group" vertex="1" connectable="0" parent="1">
          <mxGeometry x="-260" y="980" width="50" height="30" as="geometry" />
        </mxCell>
        <mxCell id="nvYKhkTwX3gsD7iD9ED5-75" value="" style="rounded=0;whiteSpace=wrap;html=1;fillColor=none;" vertex="1" parent="nvYKhkTwX3gsD7iD9ED5-74">
          <mxGeometry x="15" width="35" height="30" as="geometry" />
        </mxCell>
        <mxCell id="nvYKhkTwX3gsD7iD9ED5-76" value="" style="rounded=0;whiteSpace=wrap;html=1;" vertex="1" parent="nvYKhkTwX3gsD7iD9ED5-74">
          <mxGeometry y="5" width="25" height="5" as="geometry" />
        </mxCell>
        <mxCell id="nvYKhkTwX3gsD7iD9ED5-77" value="" style="rounded=0;whiteSpace=wrap;html=1;" vertex="1" parent="nvYKhkTwX3gsD7iD9ED5-74">
          <mxGeometry y="20" width="25" height="5" as="geometry" />
        </mxCell>
        <mxCell id="nvYKhkTwX3gsD7iD9ED5-78" style="rounded=0;orthogonalLoop=1;jettySize=auto;html=1;dashed=1;dashPattern=8 8;" edge="1" parent="1" source="nvYKhkTwX3gsD7iD9ED5-79">
          <mxGeometry relative="1" as="geometry">
            <mxPoint x="-550" y="1090" as="targetPoint" />
          </mxGeometry>
        </mxCell>
        <mxCell id="nvYKhkTwX3gsD7iD9ED5-79" value="simplified&lt;br&gt;access object" style="shape=note;whiteSpace=wrap;html=1;backgroundOutline=1;darkOpacity=0.05;fillColor=none;" vertex="1" parent="1">
          <mxGeometry x="-630" y="1220" width="122" height="50" as="geometry" />
        </mxCell>
        <mxCell id="nvYKhkTwX3gsD7iD9ED5-80" value="&lt;font style=&quot;font-size: 23px;&quot;&gt;Legend&lt;/font&gt;" style="text;html=1;align=center;verticalAlign=middle;resizable=0;points=[];autosize=1;strokeColor=none;fillColor=none;labelBackgroundColor=none;" vertex="1" parent="1">
          <mxGeometry x="-220" y="730" width="100" height="40" as="geometry" />
        </mxCell>
        <mxCell id="nvYKhkTwX3gsD7iD9ED5-81" value="" style="group" vertex="1" connectable="0" parent="1">
          <mxGeometry x="-240" y="770" width="50" height="30" as="geometry" />
        </mxCell>
        <mxCell id="nvYKhkTwX3gsD7iD9ED5-82" value="" style="rounded=0;whiteSpace=wrap;html=1;fillColor=none;" vertex="1" parent="nvYKhkTwX3gsD7iD9ED5-81">
          <mxGeometry x="15" width="35" height="30" as="geometry" />
        </mxCell>
        <mxCell id="nvYKhkTwX3gsD7iD9ED5-83" value="" style="rounded=0;whiteSpace=wrap;html=1;" vertex="1" parent="nvYKhkTwX3gsD7iD9ED5-81">
          <mxGeometry y="5" width="25" height="5" as="geometry" />
        </mxCell>
        <mxCell id="nvYKhkTwX3gsD7iD9ED5-84" value="" style="rounded=0;whiteSpace=wrap;html=1;" vertex="1" parent="nvYKhkTwX3gsD7iD9ED5-81">
          <mxGeometry y="20" width="25" height="5" as="geometry" />
        </mxCell>
        <mxCell id="nvYKhkTwX3gsD7iD9ED5-85" value="&lt;font style=&quot;font-size: 12px;&quot;&gt;component&lt;/font&gt;" style="text;html=1;align=center;verticalAlign=middle;resizable=0;points=[];autosize=1;strokeColor=none;fillColor=none;labelBackgroundColor=none;" vertex="1" parent="1">
          <mxGeometry x="-180" y="770" width="80" height="30" as="geometry" />
        </mxCell>
        <mxCell id="nvYKhkTwX3gsD7iD9ED5-86" value="&lt;font style=&quot;font-size: 12px;&quot;&gt;requires&lt;/font&gt;" style="text;html=1;align=center;verticalAlign=middle;resizable=0;points=[];autosize=1;strokeColor=none;fillColor=none;labelBackgroundColor=none;" vertex="1" parent="1">
          <mxGeometry x="-175" y="810" width="70" height="30" as="geometry" />
        </mxCell>
        <mxCell id="nvYKhkTwX3gsD7iD9ED5-87" value="&lt;font style=&quot;font-size: 12px;&quot;&gt;provides&lt;/font&gt;" style="text;html=1;align=center;verticalAlign=middle;resizable=0;points=[];autosize=1;strokeColor=none;fillColor=none;labelBackgroundColor=none;" vertex="1" parent="1">
          <mxGeometry x="-175" y="840" width="70" height="30" as="geometry" />
        </mxCell>
        <mxCell id="nvYKhkTwX3gsD7iD9ED5-88" style="edgeStyle=orthogonalEdgeStyle;rounded=0;orthogonalLoop=1;jettySize=auto;html=1;endArrow=circle;endFill=0;" edge="1" parent="1">
          <mxGeometry relative="1" as="geometry">
            <mxPoint x="-219.99999999999977" y="854.8" as="targetPoint" />
            <mxPoint x="-180" y="854.8" as="sourcePoint" />
            <Array as="points">
              <mxPoint x="-210" y="854.8" />
              <mxPoint x="-210" y="854.8" />
            </Array>
          </mxGeometry>
        </mxCell>
        <mxCell id="nvYKhkTwX3gsD7iD9ED5-89" style="edgeStyle=orthogonalEdgeStyle;rounded=0;orthogonalLoop=1;jettySize=auto;html=1;endArrow=halfCircle;endFill=0;" edge="1" parent="1">
          <mxGeometry relative="1" as="geometry">
            <mxPoint x="-220" y="824.8" as="targetPoint" />
            <mxPoint x="-190" y="824.8" as="sourcePoint" />
          </mxGeometry>
        </mxCell>
        <mxCell id="nvYKhkTwX3gsD7iD9ED5-91" value="" style="shape=note;whiteSpace=wrap;html=1;backgroundOutline=1;darkOpacity=0.05;fillColor=none;" vertex="1" parent="1">
          <mxGeometry x="-230" y="870" width="50" height="30" as="geometry" />
        </mxCell>
        <mxCell id="nvYKhkTwX3gsD7iD9ED5-92" value="&lt;font style=&quot;font-size: 12px;&quot;&gt;note&lt;/font&gt;" style="text;html=1;align=center;verticalAlign=middle;resizable=0;points=[];autosize=1;strokeColor=none;fillColor=none;labelBackgroundColor=none;" vertex="1" parent="1">
          <mxGeometry x="-165" y="870" width="50" height="30" as="geometry" />
        </mxCell>
        <mxCell id="nvYKhkTwX3gsD7iD9ED5-93" value="" style="group" vertex="1" connectable="0" parent="1">
          <mxGeometry x="-238" y="1049" width="28" height="22" as="geometry" />
        </mxCell>
        <mxCell id="nvYKhkTwX3gsD7iD9ED5-94" value="" style="rounded=0;whiteSpace=wrap;html=1;fillColor=none;" vertex="1" parent="nvYKhkTwX3gsD7iD9ED5-93">
          <mxGeometry x="8.399999999999999" width="19.599999999999998" height="22" as="geometry" />
        </mxCell>
        <mxCell id="nvYKhkTwX3gsD7iD9ED5-95" value="" style="rounded=0;whiteSpace=wrap;html=1;" vertex="1" parent="nvYKhkTwX3gsD7iD9ED5-93">
          <mxGeometry y="3.6666666666666665" width="14" height="3.6666666666666665" as="geometry" />
        </mxCell>
        <mxCell id="nvYKhkTwX3gsD7iD9ED5-96" value="" style="rounded=0;whiteSpace=wrap;html=1;" vertex="1" parent="nvYKhkTwX3gsD7iD9ED5-93">
          <mxGeometry y="14.666666666666666" width="14" height="3.6666666666666665" as="geometry" />
        </mxCell>
        <mxCell id="nvYKhkTwX3gsD7iD9ED5-97" value="" style="group" vertex="1" connectable="0" parent="1">
          <mxGeometry x="-238" y="1120" width="28" height="22" as="geometry" />
        </mxCell>
        <mxCell id="nvYKhkTwX3gsD7iD9ED5-98" value="" style="rounded=0;whiteSpace=wrap;html=1;fillColor=none;" vertex="1" parent="nvYKhkTwX3gsD7iD9ED5-97">
          <mxGeometry x="8.399999999999999" width="19.599999999999998" height="22" as="geometry" />
        </mxCell>
        <mxCell id="nvYKhkTwX3gsD7iD9ED5-99" value="" style="rounded=0;whiteSpace=wrap;html=1;" vertex="1" parent="nvYKhkTwX3gsD7iD9ED5-97">
          <mxGeometry y="3.6666666666666665" width="14" height="3.6666666666666665" as="geometry" />
        </mxCell>
        <mxCell id="nvYKhkTwX3gsD7iD9ED5-100" value="" style="rounded=0;whiteSpace=wrap;html=1;" vertex="1" parent="nvYKhkTwX3gsD7iD9ED5-97">
          <mxGeometry y="14.666666666666666" width="14" height="3.6666666666666665" as="geometry" />
        </mxCell>
        <mxCell id="nvYKhkTwX3gsD7iD9ED5-101" value="" style="group" vertex="1" connectable="0" parent="1">
          <mxGeometry x="-238" y="1190" width="28" height="22" as="geometry" />
        </mxCell>
        <mxCell id="nvYKhkTwX3gsD7iD9ED5-102" value="" style="rounded=0;whiteSpace=wrap;html=1;fillColor=none;" vertex="1" parent="nvYKhkTwX3gsD7iD9ED5-101">
          <mxGeometry x="8.399999999999999" width="19.599999999999998" height="22" as="geometry" />
        </mxCell>
        <mxCell id="nvYKhkTwX3gsD7iD9ED5-103" value="" style="rounded=0;whiteSpace=wrap;html=1;" vertex="1" parent="nvYKhkTwX3gsD7iD9ED5-101">
          <mxGeometry y="3.6666666666666665" width="14" height="3.6666666666666665" as="geometry" />
        </mxCell>
        <mxCell id="nvYKhkTwX3gsD7iD9ED5-104" value="" style="rounded=0;whiteSpace=wrap;html=1;" vertex="1" parent="nvYKhkTwX3gsD7iD9ED5-101">
          <mxGeometry y="14.666666666666666" width="14" height="3.6666666666666665" as="geometry" />
        </mxCell>
        <mxCell id="nvYKhkTwX3gsD7iD9ED5-105" value="" style="group" vertex="1" connectable="0" parent="1">
          <mxGeometry x="-238" y="1260" width="28" height="22" as="geometry" />
        </mxCell>
        <mxCell id="nvYKhkTwX3gsD7iD9ED5-106" value="" style="rounded=0;whiteSpace=wrap;html=1;fillColor=none;" vertex="1" parent="nvYKhkTwX3gsD7iD9ED5-105">
          <mxGeometry x="8.399999999999999" width="19.599999999999998" height="22" as="geometry" />
        </mxCell>
        <mxCell id="nvYKhkTwX3gsD7iD9ED5-107" value="" style="rounded=0;whiteSpace=wrap;html=1;" vertex="1" parent="nvYKhkTwX3gsD7iD9ED5-105">
          <mxGeometry y="3.6666666666666665" width="14" height="3.6666666666666665" as="geometry" />
        </mxCell>
        <mxCell id="nvYKhkTwX3gsD7iD9ED5-108" value="" style="rounded=0;whiteSpace=wrap;html=1;" vertex="1" parent="nvYKhkTwX3gsD7iD9ED5-105">
          <mxGeometry y="14.666666666666666" width="14" height="3.6666666666666665" as="geometry" />
        </mxCell>
      </root>
    </mxGraphModel>
  </diagram>
</mxfile>
